<svg class="icon icon-headphone" width="13" height="14" viewBox="0 0 13 14" fill="none" xmlns="http://www.w3.org/2000/svg">
<path d="M1.3125 6.125V7.35547C1.69531 7.13672 2.16016 7 2.625 7H3.0625C3.80078 7 4.375 7.60156 4.375 8.3125V11.8125C4.375 12.5508 3.80078 13.125 3.0625 13.125H2.625C1.17578 13.125 0 11.9492 0 10.5V6.125C0 2.73438 2.73438 0 6.125 0C9.51562 0 12.25 2.73438 12.25 6.125V10.5C12.25 11.9492 11.0742 13.125 9.625 13.125H9.1875C8.47656 13.125 7.875 12.5508 7.875 11.8125V8.3125C7.875 7.60156 8.47656 7 9.1875 7H9.625C10.1172 7 10.5547 7.13672 10.9375 7.35547V6.125C10.9375 3.47266 8.77734 1.3125 6.125 1.3125C3.47266 1.3125 1.3125 3.47266 1.3125 6.125ZM1.3125 9.625V10.5C1.3125 11.2383 1.91406 11.8125 2.625 11.8125H3.0625V8.3125H2.625C1.91406 8.3125 1.3125 8.91406 1.3125 9.625ZM10.9375 9.625C10.9375 8.91406 10.3633 8.3125 9.625 8.3125H9.1875V11.8125H9.625C10.3633 11.8125 10.9375 11.2383 10.9375 10.5V9.625Z" fill="currentColor"/>
</svg>
