<svg class="icon icon-instagram" width="30" height="30" viewBox="0 0 30 30" fill="none" xmlns="http://www.w3.org/2000/svg">
<path d="M14.9952 5.16233C18.2 5.16233 18.5762 5.17662 19.8429 5.23378C21.0143 5.28617 21.6476 5.48144 22.0714 5.64814C22.6333 5.86724 23.0333 6.12443 23.4524 6.54356C23.8714 6.96269 24.1333 7.36277 24.3476 7.92479C24.5095 8.34868 24.7095 8.98214 24.7619 10.1538C24.819 11.4207 24.8333 11.797 24.8333 15.0024C24.8333 18.2078 24.819 18.584 24.7619 19.851C24.7095 21.0226 24.5143 21.6561 24.3476 22.08C24.1286 22.642 23.8714 23.0421 23.4524 23.4612C23.0333 23.8803 22.6333 24.1423 22.0714 24.3566C21.6476 24.5186 21.0143 24.7186 19.8429 24.771C18.5762 24.8281 18.2 24.8424 14.9952 24.8424C11.7905 24.8424 11.4143 24.8281 10.1476 24.771C8.97619 24.7186 8.34286 24.5233 7.91905 24.3566C7.35714 24.1375 6.95714 23.8803 6.5381 23.4612C6.11905 23.0421 5.85714 22.642 5.64286 22.08C5.48095 21.6561 5.28095 21.0226 5.22857 19.851C5.17143 18.584 5.15714 18.2078 5.15714 15.0024C5.15714 11.797 5.17143 11.4207 5.22857 10.1538C5.28095 8.98214 5.47619 8.34868 5.64286 7.92479C5.8619 7.36277 6.11905 6.96269 6.5381 6.54356C6.95714 6.12443 7.35714 5.86247 7.91905 5.64814C8.34286 5.48621 8.97619 5.28617 10.1476 5.23378C11.4143 5.17186 11.7905 5.16233 14.9952 5.16233ZM14.9952 3C11.7381 3 11.3286 3.01429 10.0476 3.07144C8.77143 3.1286 7.9 3.3334 7.1381 3.6287C6.34762 3.93352 5.68095 4.34789 5.01429 5.01469C4.34762 5.68148 3.9381 6.35305 3.62857 7.13892C3.33333 7.90097 3.12857 8.77257 3.07143 10.0538C3.01429 11.3302 3 11.7398 3 14.9976C3 18.2554 3.01429 18.665 3.07143 19.9462C3.12857 21.2227 3.33333 22.0943 3.62857 22.8611C3.93333 23.6517 4.34762 24.3185 5.01429 24.9853C5.68095 25.6521 6.35238 26.0617 7.1381 26.3713C7.9 26.6666 8.77143 26.8714 10.0524 26.9286C11.3333 26.9857 11.7381 27 15 27C18.2619 27 18.6667 26.9857 19.9476 26.9286C21.2238 26.8714 22.0952 26.6666 22.8619 26.3713C23.6524 26.0665 24.319 25.6521 24.9857 24.9853C25.6524 24.3185 26.0619 23.647 26.3714 22.8611C26.6667 22.099 26.8714 21.2274 26.9286 19.9462C26.9857 18.665 27 18.2602 27 14.9976C27 11.7351 26.9857 11.3302 26.9286 10.049C26.8714 8.77257 26.6667 7.90097 26.3714 7.13415C26.0667 6.34352 25.6524 5.67672 24.9857 5.00992C24.319 4.34312 23.6476 3.93352 22.8619 3.62393C22.1 3.32864 21.2286 3.12383 19.9476 3.06668C18.6619 3.01429 18.2524 3 14.9952 3Z" fill="currentColor"/>
<path d="M14.9959 8.83459C11.5959 8.83459 8.83398 11.5923 8.83398 14.9977C8.83398 18.4032 11.5959 21.1608 14.9959 21.1608C18.3959 21.1608 21.1578 18.3984 21.1578 14.9977C21.1578 11.597 18.3959 8.83459 14.9959 8.83459ZM14.9959 18.9985C12.7864 18.9985 10.9959 17.2077 10.9959 14.9977C10.9959 12.7878 12.7864 10.9969 14.9959 10.9969C17.2054 10.9969 18.9959 12.7878 18.9959 14.9977C18.9959 17.2077 17.2054 18.9985 14.9959 18.9985Z" fill="currentColor"/>
</svg>
