<svg class="icon icon-paper-plane" width="30" height="30" viewBox="0 0 30 30" fill="none" xmlns="http://www.w3.org/2000/svg">
  <path fill-rule="evenodd" clip-rule="evenodd" d="M25.2509 3.23318C24.9631 3.17984 24.6664 3.19474 24.384 3.27573L2.5394 9.4268C2.21182 9.51781 1.91526 9.69517 1.67999 9.93829L1.58166 10.047C1.36297 10.311 1.2208 10.6292 1.16756 10.966L1.14959 11.1106C1.11835 11.5012 1.20895 11.8925 1.4077 12.2301C1.60385 12.5631 1.89694 12.8294 2.24726 12.9921L12.2681 17.7335L17.0028 27.7401C17.165 28.0967 17.433 28.3951 17.7706 28.5939C18.1082 28.7927 18.4994 28.8823 18.89 28.851C19.2804 28.8197 19.652 28.6688 19.9536 28.4189C20.2532 28.1706 20.4697 27.8361 20.5738 27.4612L26.7258 5.61665C26.8067 5.33435 26.8217 5.03737 26.7684 4.74968L26.741 4.62582L26.705 4.50386C26.6258 4.26271 26.4986 4.03978 26.3316 3.84867L26.2455 3.75601L26.1519 3.66903C25.961 3.50219 25.7386 3.37481 25.4977 3.29558L25.3757 3.25965L25.2509 3.23318ZM12.7918 15.8379L3.13598 11.2695L24.8434 5.15622L18.7302 26.8637L14.1618 17.2069L18.9779 12.3917C19.3556 12.0137 19.3556 11.4007 18.9779 11.0227C18.5998 10.6446 17.986 10.6446 17.6079 11.0227L12.7918 15.8379Z" fill="currentColor"/>
</svg>